# Blender v2.69 (sub 0) OBJ File: 'cube.blend'
# www.blender.org
o cube
v -1.000000 1.000000 1.000000
v -1.000000 1.000000 -1.000000
v -1.000000 -1.000000 -1.000000
v 1.000000 1.000000 -1.000000
v 1.000000 -1.000000 -1.000000
v 1.000000 1.000000 1.000000
v 1.000000 -1.000000 1.000000
v -1.000000 -1.000000 1.000000
vt 0.000071 -0.001492
vt 0.996875 -0.001562
vt 0.998508 0.998367
vt 0.999900 0.999900
vt 0.000100 0.999900
vt 0.000100 0.000100
vt -0.001633 0.996946
vt 1.000000 0.998437
vt 0.996946 -0.001492
vt 1.000071 -0.001563
vt 0.001563 0.001633
vt 0.001492 0.998437
vt 0.000071 0.000071
vt 1.000000 0.000000
vt 0.996946 0.996804
vt 0.996875 0.000000
vt 1.011008 0.985867
vt 1.000000 -0.003054
vt 0.996804 1.000000
vt 0.000071 -0.000000
vt 0.998438 -0.001492
vt 0.996804 0.998437
vt 0.003196 -0.001563
vt 0.998437 -0.003054
vt 0.999929 0.996875
vt -0.001492 -0.001563
vt 0.001563 0.996875
vt 0.998367 0.998508
vt 1.001562 -0.001562
vn -1.000000 -0.000000 0.000000
vn 0.000000 0.000000 -1.000000
vn 1.000000 -0.000000 0.000000
vn 0.000000 -0.000000 1.000000
vn 0.000000 -1.000000 -0.000000
vn 0.000000 1.000000 0.000000
s off
f 1/1/1 2/2/1 3/3/1
f 2/4/2 4/5/2 5/6/2
f 4/7/3 6/8/3 7/9/3
f 6/4/4 1/5/4 8/6/4
f 8/10/5 3/11/5 5/12/5
f 6/13/6 4/14/6 2/15/6
f 8/16/1 1/17/1 3/13/1
f 3/18/2 2/19/2 5/20/2
f 5/21/3 4/22/3 7/23/3
f 7/24/4 6/25/4 8/26/4
f 7/27/5 8/13/5 5/28/5
f 1/29/6 6/15/6 2/13/6
