# Blender v2.69 (sub 0) OBJ File: 'cube_wood.blend'
# www.blender.org
o Cube_Cube.001
v -1.000000 -1.000000 1.000000
v -1.000000 -1.000000 -1.000000
v 1.000000 -1.000000 -1.000000
v 1.000000 -1.000000 1.000000
v -1.000000 1.000000 1.000000
v -1.000000 1.000000 -1.000000
v 1.000000 1.000000 -1.000000
v 1.000000 1.000000 1.000000
vt 0.000000 0.000000
vt 1.000000 0.000000
vt 1.000000 -1.000000
vt -1.000000 0.000000
vt -1.000000 -1.000000
vt 0.000000 1.000000
vt 1.000000 1.000000
vt -1.000000 1.000000
vn -1.000000 0.000000 0.000000
vn 0.000000 0.000000 -1.000000
vn 1.000000 0.000000 0.000000
vn 0.000000 0.000000 1.000000
vn 0.000000 -1.000000 0.000000
vn 0.000000 1.000000 0.000000
s off
f 5/1/1 6/2/1 2/3/1
f 6/1/2 7/2/2 3/3/2
f 7/1/3 8/4/3 4/5/3
f 8/1/4 5/4/4 1/5/4
f 1/1/5 2/6/5 3/7/5
f 8/1/6 7/6/6 6/8/6
f 1/1/1 5/6/1 2/2/1
f 2/1/2 6/6/2 3/2/2
f 3/1/3 7/6/3 4/4/3
f 4/1/4 8/6/4 1/4/4
f 4/1/5 1/4/5 3/6/5
f 5/1/6 8/2/6 6/6/6
