# Blender v2.69 (sub 0) OBJ File: 'pyramid.blend'
# www.blender.org
o pyramid
v 0.000000 -1.000000 -0.000000
v 0.000000 -1.000000 -1.000000
v 0.104528 -1.000000 -0.994522
v 0.207912 -1.000000 -0.978148
v 0.309017 -1.000000 -0.951057
v 0.406737 -1.000000 -0.913545
v 0.500000 -1.000000 -0.866025
v 0.587785 -1.000000 -0.809017
v 0.669131 -1.000000 -0.743145
v 0.743145 -1.000000 -0.669131
v 0.809017 -1.000000 -0.587785
v 0.866025 -1.000000 -0.500000
v 0.913545 -1.000000 -0.406737
v 0.951057 -1.000000 -0.309017
v 0.978148 -1.000000 -0.207912
v 0.994522 -1.000000 -0.104528
v 1.000000 -1.000000 -0.000000
v 0.994522 -1.000000 0.104529
v 0.978148 -1.000000 0.207912
v 0.951056 -1.000000 0.309017
v 0.913545 -1.000000 0.406737
v 0.866025 -1.000000 0.500000
v 0.809017 -1.000000 0.587785
v 0.743145 -1.000000 0.669131
v 0.669131 -1.000000 0.743145
v 0.587786 -1.000000 0.809017
v 0.500000 -1.000000 0.866025
v 0.406737 -1.000000 0.913545
v 0.309018 -1.000000 0.951056
v 0.207913 -1.000000 0.978147
v 0.104529 -1.000000 0.994522
v 0.000001 -1.000000 1.000000
v -0.104527 -1.000000 0.994522
v -0.207910 -1.000000 0.978148
v -0.309016 -1.000000 0.951057
v -0.406735 -1.000000 0.913546
v -0.499999 -1.000000 0.866026
v -0.587784 -1.000000 0.809018
v -0.669129 -1.000000 0.743146
v -0.743143 -1.000000 0.669132
v -0.809016 -1.000000 0.587787
v -0.866024 -1.000000 0.500002
v -0.913544 -1.000000 0.406739
v -0.951056 -1.000000 0.309019
v -0.978147 -1.000000 0.207914
v -0.994522 -1.000000 0.104531
v -1.000000 -1.000000 0.000003
v -0.994522 -1.000000 -0.104526
v -0.978148 -1.000000 -0.207909
v -0.951057 -1.000000 -0.309014
v -0.913547 -1.000000 -0.406734
v -0.866027 -1.000000 -0.499997
v -0.809019 -1.000000 -0.587782
v -0.743147 -1.000000 -0.669128
v -0.669133 -1.000000 -0.743142
v -0.587788 -1.000000 -0.809015
v -0.500003 -1.000000 -0.866023
v -0.406740 -1.000000 -0.913544
v -0.309021 -1.000000 -0.951055
v -0.207916 -1.000000 -0.978147
v -0.104533 -1.000000 -0.994521
v 0.000000 1.000000 0.000000
vt 0.830177 0.147144
vt 0.742798 0.334814
vt 0.734771 0.323538
vt 0.726718 0.311561
vt 0.718610 0.298950
vt 0.710413 0.285772
vt 0.702084 0.272101
vt 0.693570 0.258010
vt 0.684804 0.243582
vt 0.675706 0.228906
vt 0.666175 0.214082
vt 0.656081 0.199225
vt 0.645266 0.184474
vt 0.633526 0.169995
vt 0.620611 0.156000
vt 0.606220 0.142762
vt 0.590019 0.130630
vt 0.571692 0.120046
vt 0.551061 0.111543
vt 0.528276 0.105695
vt 0.503991 0.103001
vt 1.146000 0.103728
vt 1.122233 0.107802
vt 1.100309 0.114839
vt 1.080656 0.124289
vt 1.063259 0.135587
vt 1.047863 0.148234
vt 1.034134 0.161828
vt 1.021749 0.176056
vt 1.010426 0.190673
vt 0.999937 0.205488
vt 0.990098 0.220346
vt 0.980764 0.235121
vt 0.971817 0.249704
vt 0.963166 0.264000
vt 0.954737 0.277923
vt 0.946470 0.291395
vt 0.938315 0.304343
vt 0.930235 0.316694
vt 0.922196 0.328384
vt 0.914173 0.339345
vt 0.906147 0.349518
vt 0.898103 0.358841
vt 0.890030 0.367260
vt 0.881922 0.374721
vt 0.873775 0.381176
vt 0.865591 0.386583
vt 0.857372 0.390905
vt 0.849124 0.394112
vt 0.840855 0.396180
vt 0.832572 0.397095
vt 0.824288 0.396850
vt 0.816010 0.395448
vt 0.807748 0.392897
vt 0.799512 0.389217
vt 0.791307 0.384433
vt 0.783138 0.378579
vt 0.775008 0.371694
vt 0.766915 0.363823
vt 0.758855 0.355016
vt 0.750820 0.345327
vt 0.496844 0.852856
vt 0.479333 0.103728
vt 0.455566 0.107802
vt 0.433642 0.114839
vt 0.413989 0.124289
vt 0.396592 0.135587
vt 0.381196 0.148234
vt 0.367467 0.161828
vt 0.355082 0.176056
vt 0.343759 0.190673
vt 0.333270 0.205488
vt 0.323432 0.220346
vt 0.314097 0.235121
vt 0.305151 0.249704
vt 0.296500 0.264000
vt 0.288071 0.277923
vt 0.279803 0.291395
vt 0.271649 0.304343
vt 0.263568 0.316694
vt 0.255529 0.328384
vt 0.247506 0.339345
vt 0.239480 0.349518
vt 0.231436 0.358841
vt 0.223363 0.367260
vt 0.215255 0.374721
vt 0.207109 0.381176
vt 0.198924 0.386583
vt 0.190705 0.390905
vt 0.182457 0.394112
vt 0.174188 0.396180
vt 1.163510 0.852856
vn 0.000000 -1.000000 -0.000000
vn -0.000000 -1.000000 -0.000001
vn 0.046823 0.446723 -0.893446
vn 0.139954 0.446723 -0.883658
vn 0.231558 0.446723 -0.864187
vn 0.320628 0.446723 -0.835246
vn 0.406174 0.446723 -0.797158
vn 0.487272 0.446723 -0.750336
vn 0.563032 0.446723 -0.695294
vn 0.632629 0.446723 -0.632629
vn 0.695294 0.446723 -0.563032
vn 0.750337 0.446723 -0.487272
vn 0.797158 0.446723 -0.406174
vn 0.835246 0.446723 -0.320628
vn 0.864187 0.446723 -0.231558
vn 0.883658 0.446723 -0.139954
vn 0.893446 0.446723 -0.046823
vn 0.893446 0.446723 0.046823
vn 0.883658 0.446723 0.139955
vn 0.864185 0.446723 0.231566
vn 0.835249 0.446723 0.320621
vn 0.797158 0.446723 0.406174
vn 0.750336 0.446723 0.487272
vn 0.695294 0.446723 0.563032
vn 0.632629 0.446723 0.632629
vn 0.563036 0.446723 0.695290
vn 0.487268 0.446723 0.750339
vn 0.406174 0.446723 0.797158
vn 0.320623 0.446723 0.835248
vn 0.231558 0.446723 0.864187
vn 0.139962 0.446723 0.883657
vn 0.046823 0.446723 0.893446
vn -0.046823 0.446723 0.893446
vn -0.139955 0.446723 0.883658
vn -0.231556 0.446723 0.864188
vn -0.320623 0.446723 0.835248
vn -0.406170 0.446723 0.797160
vn -0.487272 0.446723 0.750337
vn -0.563036 0.446723 0.695291
vn -0.632629 0.446723 0.632629
vn -0.695286 0.446723 0.563041
vn -0.750336 0.446723 0.487272
vn -0.797159 0.446723 0.406173
vn -0.835246 0.446723 0.320628
vn -0.864187 0.446723 0.231558
vn -0.883656 0.446723 0.139964
vn -0.893446 0.446723 0.046823
vn -0.893446 0.446723 -0.046823
vn -0.883658 0.446723 -0.139955
vn -0.864187 0.446723 -0.231558
vn -0.835252 0.446723 -0.320613
vn -0.797158 0.446723 -0.406173
vn -0.750336 0.446723 -0.487272
vn -0.695294 0.446723 -0.563032
vn -0.632629 0.446723 -0.632629
vn -0.563041 0.446723 -0.695286
vn -0.487272 0.446723 -0.750336
vn -0.406180 0.446723 -0.797155
vn -0.320623 0.446723 -0.835248
vn -0.231566 0.446723 -0.864185
vn -0.139956 0.446723 -0.883658
vn -0.046828 0.446723 -0.893446
s off
f 1/1/1 2/2/1 3/3/1
f 1/1/1 3/3/1 4/4/1
f 1/1/1 4/4/1 5/5/1
f 1/1/1 5/5/1 6/6/1
f 1/1/1 6/6/1 7/7/1
f 1/1/1 7/7/1 8/8/1
f 1/1/1 8/8/1 9/9/1
f 1/1/1 9/9/1 10/10/1
f 1/1/1 10/10/1 11/11/1
f 1/1/2 11/11/2 12/12/2
f 1/1/1 12/12/1 13/13/1
f 1/1/1 13/13/1 14/14/1
f 1/1/1 14/14/1 15/15/1
f 1/1/1 15/15/1 16/16/1
f 1/1/1 16/16/1 17/17/1
f 1/1/1 17/17/1 18/18/1
f 1/1/1 18/18/1 19/19/1
f 1/1/1 19/19/1 20/20/1
f 1/1/1 20/20/1 21/21/1
f 1/1/1 21/21/1 22/22/1
f 1/1/1 22/22/1 23/23/1
f 1/1/1 23/23/1 24/24/1
f 1/1/1 24/24/1 25/25/1
f 1/1/1 25/25/1 26/26/1
f 1/1/1 26/26/1 27/27/1
f 1/1/1 27/27/1 28/28/1
f 1/1/1 28/28/1 29/29/1
f 1/1/1 29/29/1 30/30/1
f 1/1/1 30/30/1 31/31/1
f 1/1/1 31/31/1 32/32/1
f 1/1/1 32/32/1 33/33/1
f 1/1/1 33/33/1 34/34/1
f 1/1/1 34/34/1 35/35/1
f 1/1/1 35/35/1 36/36/1
f 1/1/1 36/36/1 37/37/1
f 1/1/1 37/37/1 38/38/1
f 1/1/1 38/38/1 39/39/1
f 1/1/1 39/39/1 40/40/1
f 1/1/1 40/40/1 41/41/1
f 1/1/1 41/41/1 42/42/1
f 1/1/1 42/42/1 43/43/1
f 1/1/1 43/43/1 44/44/1
f 1/1/1 44/44/1 45/45/1
f 1/1/1 45/45/1 46/46/1
f 1/1/1 46/46/1 47/47/1
f 1/1/1 47/47/1 48/48/1
f 1/1/1 48/48/1 49/49/1
f 1/1/1 49/49/1 50/50/1
f 1/1/1 50/50/1 51/51/1
f 1/1/1 51/51/1 52/52/1
f 1/1/2 52/52/2 53/53/2
f 1/1/1 53/53/1 54/54/1
f 1/1/1 54/54/1 55/55/1
f 1/1/1 55/55/1 56/56/1
f 1/1/1 56/56/1 57/57/1
f 1/1/1 57/57/1 58/58/1
f 1/1/1 58/58/1 59/59/1
f 1/1/1 59/59/1 60/60/1
f 1/1/1 60/60/1 61/61/1
f 1/1/1 61/61/1 2/2/1
f 2/2/3 62/62/3 3/3/3
f 3/3/4 62/62/4 4/4/4
f 4/4/5 62/62/5 5/5/5
f 5/5/6 62/62/6 6/6/6
f 6/6/7 62/62/7 7/7/7
f 7/7/8 62/62/8 8/8/8
f 8/8/9 62/62/9 9/9/9
f 9/9/10 62/62/10 10/10/10
f 10/10/11 62/62/11 11/11/11
f 11/11/12 62/62/12 12/12/12
f 12/12/13 62/62/13 13/13/13
f 13/13/14 62/62/14 14/14/14
f 14/14/15 62/62/15 15/15/15
f 15/15/16 62/62/16 16/16/16
f 16/16/17 62/62/17 17/17/17
f 17/17/18 62/62/18 18/18/18
f 18/18/19 62/62/19 19/19/19
f 19/19/20 62/62/20 20/20/20
f 20/20/21 62/62/21 21/21/21
f 21/21/22 62/62/22 22/63/22
f 22/63/23 62/62/23 23/64/23
f 23/64/24 62/62/24 24/65/24
f 24/65/25 62/62/25 25/66/25
f 25/66/26 62/62/26 26/67/26
f 26/67/27 62/62/27 27/68/27
f 27/68/28 62/62/28 28/69/28
f 28/69/29 62/62/29 29/70/29
f 29/70/30 62/62/30 30/71/30
f 30/71/31 62/62/31 31/72/31
f 31/72/32 62/62/32 32/73/32
f 32/73/33 62/62/33 33/74/33
f 33/74/34 62/62/34 34/75/34
f 34/75/35 62/62/35 35/76/35
f 35/76/36 62/62/36 36/77/36
f 36/77/37 62/62/37 37/78/37
f 37/78/38 62/62/38 38/79/38
f 38/79/39 62/62/39 39/80/39
f 39/80/40 62/62/40 40/81/40
f 40/81/41 62/62/41 41/82/41
f 41/82/42 62/62/42 42/83/42
f 42/83/43 62/62/43 43/84/43
f 43/84/44 62/62/44 44/85/44
f 44/85/45 62/62/45 45/86/45
f 45/86/46 62/62/46 46/87/46
f 46/87/47 62/62/47 47/88/47
f 47/88/48 62/62/48 48/89/48
f 48/89/49 62/62/49 49/90/49
f 49/90/50 62/62/50 50/91/50
f 50/50/51 62/92/51 51/51/51
f 51/51/52 62/92/52 52/52/52
f 52/52/53 62/62/53 53/53/53
f 53/53/54 62/62/54 54/54/54
f 54/54/55 62/62/55 55/55/55
f 55/55/56 62/62/56 56/56/56
f 56/56/57 62/62/57 57/57/57
f 57/57/58 62/62/58 58/58/58
f 58/58/59 62/62/59 59/59/59
f 59/59/60 62/62/60 60/60/60
f 60/60/61 62/62/61 61/61/61
f 61/61/62 62/62/62 2/2/62
